<?xml version="1.0"?>
<svg width="230" height="50" xmlns="http://www.w3.org/2000/svg" xmlns:svg="http://www.w3.org/2000/svg" class="watermark-logo" version="1.1">
 <g class="layer">
  <title>Layer 1</title>
  <g fill="#101820" fill-rule="none" font-family="none" font-size="none" font-weight="none" id="svg_1" stroke-dashoffset="0" stroke-miterlimit="10" text-anchor="none">
   <g data-paper-data="{&quot;isGlobalGroup&quot;:true,&quot;bounds&quot;:{&quot;x&quot;:65.00000000000001,&quot;y&quot;:193.79353668011956,&quot;width&quot;:420,&quot;height&quot;:82.41292663976085}}" id="svg_2">
    <g data-paper-data="{&quot;isPrimaryText&quot;:true}" fill-rule="nonzero" id="svg_3">
     <path d="m67.84,6.53l6.99,0l0,30.46l20.07,0l0,6.59l-27.05,0l0,-37.06l-0.01,0l-0.01,0l0.01,0z" data-paper-data="{&quot;glyphName&quot;:&quot;L&quot;,&quot;glyphIndex&quot;:0,&quot;firstGlyphOfWord&quot;:true,&quot;word&quot;:1}" fill="rgb(255, 255, 255)" id="svg_4"/>
     <path d="m99.64,24.96c0,-2.8 0.49,-5.35 1.43,-7.69c0.96,-2.33 2.3,-4.33 4.02,-5.99c1.73,-1.67 3.8,-2.96 6.23,-3.88c2.42,-0.92 5.1,-1.38 8.05,-1.38c2.92,0 5.6,0.47 8.03,1.38c2.42,0.92 4.5,2.21 6.24,3.88c1.73,1.67 3.08,3.66 4.02,5.99c0.95,2.33 1.43,4.89 1.43,7.69c0,2.81 -0.49,5.39 -1.43,7.74c-0.96,2.35 -2.3,4.37 -4.02,6.06c-1.73,1.68 -3.81,3 -6.24,3.94c-2.42,0.94 -5.1,1.41 -8.03,1.41c-2.94,0 -5.63,-0.47 -8.05,-1.41c-2.42,-0.94 -4.49,-2.26 -6.23,-3.94c-1.73,-1.69 -3.08,-3.71 -4.02,-6.06c-0.95,-2.35 -1.43,-4.93 -1.43,-7.74zm6.99,0c0,1.91 0.33,3.63 0.96,5.17c0.64,1.53 1.53,2.84 2.66,3.93c1.14,1.08 2.49,1.91 4.04,2.49c1.56,0.59 3.25,0.88 5.07,0.88c1.82,0 3.51,-0.3 5.07,-0.88c1.55,-0.58 2.89,-1.41 4.02,-2.49c1.13,-1.09 2.03,-2.4 2.66,-3.93c0.66,-1.53 0.97,-3.26 0.97,-5.17c0,-1.91 -0.33,-3.62 -0.97,-5.15c-0.66,-1.51 -1.54,-2.8 -2.66,-3.85c-1.13,-1.05 -2.48,-1.85 -4.02,-2.41c-1.56,-0.55 -3.25,-0.83 -5.07,-0.83c-1.83,0 -3.51,0.28 -5.07,0.83c-1.55,0.56 -2.89,1.36 -4.04,2.41c-1.14,1.05 -2.03,2.34 -2.66,3.85c-0.64,1.52 -0.96,3.24 -0.96,5.15z" data-paper-data="{&quot;glyphName&quot;:&quot;O&quot;,&quot;glyphIndex&quot;:1,&quot;word&quot;:1}" fill="rgb(255, 255, 255)" id="svg_5"/>
     <path d="m144.5,24.71c0,-2.61 0.45,-5.05 1.37,-7.31c0.91,-2.27 2.25,-4.25 4,-5.92c1.75,-1.67 3.9,-2.99 6.46,-3.96c2.55,-0.96 5.47,-1.45 8.76,-1.45c1.19,0 2.38,0.07 3.58,0.21c1.2,0.13 2.38,0.35 3.56,0.62c1.16,0.29 2.3,0.65 3.43,1.08c1.12,0.43 2.17,0.95 3.17,1.55l-3.22,5.69c-0.61,-0.38 -1.28,-0.72 -2.05,-1.03c-0.76,-0.31 -1.58,-0.56 -2.46,-0.78c-0.88,-0.21 -1.79,-0.38 -2.71,-0.48c-0.93,-0.11 -1.87,-0.16 -2.82,-0.16c-2.19,0 -4.12,0.3 -5.82,0.88c-1.71,0.59 -3.14,1.42 -4.33,2.49c-1.17,1.06 -2.08,2.35 -2.69,3.83c-0.62,1.48 -0.91,3.12 -0.91,4.88c0,1.84 0.33,3.51 0.97,5.06c0.66,1.53 1.57,2.85 2.76,3.96c1.19,1.1 2.64,1.97 4.33,2.59c1.7,0.62 3.58,0.94 5.68,0.94c1.67,0 3.2,-0.21 4.57,-0.6c1.38,-0.4 2.59,-0.98 3.62,-1.72c1.03,-0.73 1.87,-1.64 2.52,-2.68c0.66,-1.05 1.07,-2.23 1.28,-3.55l-12.05,0l0,-6.19l18.34,0l0,0.02l0.02,-0.02c0.38,1.9 0.49,3.74 0.35,5.53c-0.13,1.79 -0.52,3.48 -1.14,5.08c-0.63,1.58 -1.47,3.05 -2.56,4.37c-1.08,1.33 -2.39,2.47 -3.9,3.43c-1.52,0.96 -3.23,1.7 -5.18,2.23c-1.93,0.52 -4.04,0.79 -6.33,0.79c-3.22,0 -6.08,-0.51 -8.62,-1.52c-2.54,-1.01 -4.69,-2.4 -6.46,-4.15c-1.77,-1.75 -3.11,-3.81 -4.05,-6.17c-0.93,-2.35 -1.4,-4.87 -1.4,-7.54l-0.01,-0.01l-0.04,0.01l0.01,0l-0.01,0z" data-paper-data="{&quot;glyphName&quot;:&quot;G&quot;,&quot;glyphIndex&quot;:2,&quot;word&quot;:1}" fill="rgb(255, 255, 255)" id="svg_6"/>
     <path d="m190.03,24.96c0,-2.8 0.49,-5.35 1.43,-7.69c0.96,-2.33 2.3,-4.33 4.02,-5.99c1.73,-1.67 3.81,-2.96 6.23,-3.88c2.42,-0.92 5.1,-1.38 8.05,-1.38c2.92,0 5.6,0.47 8.03,1.38c2.42,0.92 4.5,2.21 6.24,3.88c1.73,1.67 3.08,3.66 4.02,5.99c0.96,2.33 1.43,4.89 1.43,7.69c0,2.81 -0.49,5.39 -1.43,7.74c-0.95,2.35 -2.29,4.37 -4.02,6.06c-1.73,1.68 -3.81,3 -6.24,3.94c-2.42,0.94 -5.12,1.41 -8.03,1.41c-2.94,0 -5.63,-0.47 -8.05,-1.41c-2.42,-0.94 -4.5,-2.26 -6.23,-3.94c-1.73,-1.69 -3.06,-3.71 -4.02,-6.06c-0.96,-2.35 -1.43,-4.93 -1.43,-7.74zm6.99,0c0,1.91 0.33,3.63 0.96,5.17c0.64,1.53 1.53,2.84 2.66,3.93c1.14,1.08 2.49,1.91 4.04,2.49c1.56,0.59 3.25,0.88 5.07,0.88c1.83,0 3.51,-0.3 5.07,-0.88c1.56,-0.58 2.89,-1.41 4.02,-2.49c1.13,-1.09 2.03,-2.4 2.66,-3.93c0.66,-1.53 0.97,-3.26 0.97,-5.17c0,-1.91 -0.33,-3.62 -0.97,-5.15c-0.66,-1.51 -1.54,-2.8 -2.66,-3.85c-1.14,-1.05 -2.48,-1.85 -4.02,-2.41c-1.55,-0.55 -3.23,-0.83 -5.07,-0.83c-1.82,0 -3.51,0.28 -5.07,0.83c-1.55,0.56 -2.9,1.36 -4.04,2.41c-1.14,1.05 -2.03,2.34 -2.66,3.85c-0.64,1.52 -0.96,3.24 -0.96,5.15z" data-paper-data="{&quot;glyphName&quot;:&quot;O&quot;,&quot;glyphIndex&quot;:3,&quot;lastGlyphOfWord&quot;:true,&quot;word&quot;:1}" fill="rgb(255, 255, 255)" id="svg_7"/>
    </g>
    <g data-paper-data="{&quot;isIcon&quot;:&quot;true&quot;,&quot;iconType&quot;:&quot;icon&quot;,&quot;rawIconId&quot;:&quot;61353&quot;,&quot;selectedEffects&quot;:{&quot;container&quot;:&quot;&quot;,&quot;transformation&quot;:&quot;&quot;,&quot;pattern&quot;:&quot;&quot;},&quot;isDetailed&quot;:false,&quot;fillRule&quot;:&quot;evenodd&quot;,&quot;bounds&quot;:{&quot;x&quot;:65.00000000000001,&quot;y&quot;:193.79353668011956,&quot;width&quot;:82.52616904892982,&quot;height&quot;:82.41292663976085},&quot;iconStyle&quot;:&quot;standalone&quot;,&quot;suitableAsStandaloneIcon&quot;:true}" fill-rule="evenodd" id="svg_8">
     <path d="m7.46,24.28l17.95,-19.29l-3.82,-3.99l-19.31,20.75c-1.7,1.82 -1.7,4.77 0,6.59l19.39,20.82l3.78,-4.06l-17.96,-19.3c-0.4,-0.43 -0.4,-1.11 0,-1.53l-0.01,0l-0.01,0zm31.99,1.54l-8.62,9.26l3.82,3.99l9.98,-10.73c1.7,-1.82 1.7,-4.77 0,-6.59l-10.07,-10.83l-3.78,4.05l8.65,9.29c0.4,0.43 0.4,1.12 0,1.53l0,0.01l0.01,0l0,0.01z" data-paper-data="{&quot;isPathIcon&quot;:true}" fill="rgb(255, 255, 255)" id="svg_9"/>
    </g>
   </g>
  </g>
 </g>
</svg>